<?xml version="1.0" standalone="no"?>
<!DOCTYPE svg PUBLIC "-//W3C//DTD SVG 20010904//EN"
 "http://www.w3.org/TR/2001/REC-SVG-20010904/DTD/svg10.dtd">
<svg version="1.0" xmlns="http://www.w3.org/2000/svg"
 width="630.000000pt" height="420.000000pt" viewBox="0 0 630.000000 420.000000"
 preserveAspectRatio="xMidYMid meet">

<g transform="translate(0.000000,420.000000) scale(0.100000,-0.100000)"
fill="#000000" stroke="none">
<path d="M2994 2496 c-44 -7 -111 -23 -149 -35 -137 -45 -305 -144 -313 -185
-13 -66 183 -202 357 -247 87 -23 264 -35 300 -22 19 8 3 11 -75 16 -59 3
-119 13 -149 24 -47 17 -50 21 -53 56 -3 36 -14 47 -27 27 -3 -5 -1 -10 4 -10
6 0 11 -9 11 -20 0 -29 -17 -25 -32 8 -11 22 -19 26 -44 24 -38 -4 -66 22 -33
31 16 4 20 12 17 34 -2 22 -9 29 -30 31 -23 3 -29 -2 -35 -25 l-7 -28 -6 29
c-3 17 -9 29 -15 27 -5 -1 -8 -10 -7 -19 3 -13 -2 -11 -22 7 -25 23 -33 50
-20 64 4 3 15 -4 25 -16 14 -18 21 -20 36 -11 22 14 29 42 13 58 -9 8 -11 6
-5 -12 7 -25 -19 -42 -37 -24 -16 16 4 36 58 62 24 12 47 27 50 32 5 7 12 4
21 -7 12 -18 13 -17 13 6 l0 24 19 -24 c26 -33 55 -25 61 19 3 23 8 31 13 23
11 -18 27 -16 27 2 0 26 161 60 287 60 98 0 101 0 65 13 -53 19 -223 24 -318
8z m-86 -108 c-2 -12 -9 -23 -15 -26 -19 -6 -29 28 -12 39 23 14 31 10 27 -13z
m-113 -193 c0 -11 -8 -21 -17 -23 -14 -3 -18 3 -18 23 0 20 4 26 18 23 9 -2
17 -12 17 -23z m65 -85 c0 -13 -11 -13 -30 0 -12 8 -11 10 8 10 12 0 22 -4 22
-10z"/>
<path d="M3590 2469 c-20 -37 28 -67 58 -37 16 16 15 23 -4 42 -21 22 -41 20
-54 -5z"/>
<path d="M3726 2404 c-19 -19 -20 -26 -4 -42 24 -24 68 -9 68 23 0 7 -32 35
-40 35 -5 0 -16 -7 -24 -16z"/>
<path d="M3013 2346 c-32 -29 -35 -36 -24 -50 20 -24 56 -20 75 9 15 22 24 25
84 26 37 1 57 4 46 6 -12 2 -30 13 -40 24 -12 13 -30 19 -61 19 -35 0 -50 -6
-80 -34z"/>
<path d="M3625 2339 c-4 -5 -4 -21 -1 -35 5 -19 12 -24 28 -22 26 4 43 30 35
52 -7 18 -52 22 -62 5z"/>
<path d="M2768 2290 c2 -22 8 -38 12 -35 5 3 7 18 5 33 -2 15 -4 30 -4 35 -1
4 -4 7 -9 7 -4 0 -6 -18 -4 -40z"/>
<path d="M2810 2315 c-15 -18 -10 -45 12 -59 26 -16 53 14 44 48 -7 29 -36 35
-56 11z m48 -18 c4 -21 -25 -34 -40 -19 -8 8 -8 16 2 27 16 19 34 15 38 -8z"/>
<path d="M2886 2315 c4 -8 8 -15 10 -15 2 0 4 7 4 15 0 8 -4 15 -10 15 -5 0
-7 -7 -4 -15z"/>
<path d="M3076 2285 c-10 -15 -26 -25 -39 -25 -25 0 -77 -21 -77 -32 0 -3 8
-4 19 -1 10 3 22 0 25 -6 4 -6 27 -11 50 -11 36 0 47 5 60 25 15 22 23 25 77
25 52 0 60 2 55 16 -3 9 -6 20 -6 25 0 5 -33 9 -74 9 -68 0 -75 -2 -90 -25z"/>
<path d="M2966 2274 c-4 -9 -4 -19 -2 -21 8 -8 26 8 26 23 0 19 -16 18 -24 -2z"/>
<path d="M3124 2215 c-13 -20 -25 -25 -58 -25 -44 -1 -82 -22 -71 -39 3 -6 15
-11 25 -11 11 0 24 -8 29 -19 11 -20 51 -36 51 -20 0 5 11 7 24 3 14 -3 33 -1
43 6 15 10 13 11 -13 6 -28 -4 -31 -3 -27 14 4 16 0 20 -17 20 -17 0 -21 -4
-17 -20 3 -11 1 -20 -4 -20 -15 0 -10 37 6 50 13 10 19 10 33 -4 25 -21 75
-20 95 2 9 10 20 33 23 50 l7 32 -57 0 c-48 0 -58 -3 -72 -25z"/>
<path d="M2828 2195 c2 -19 8 -35 13 -35 5 0 9 16 9 35 0 22 -5 35 -13 35 -9
0 -12 -11 -9 -35z"/>
<path d="M2865 2211 c-8 -25 4 -51 24 -51 13 0 13 2 2 9 -8 5 -12 19 -9 35 6
30 -8 36 -17 7z"/>
<path d="M2977 2213 c-4 -3 -7 -12 -7 -20 0 -15 26 -18 34 -4 7 11 -18 33 -27
24z"/>
<path d="M3557 2214 c-25 -25 8 -70 43 -59 32 10 24 59 -10 63 -14 2 -29 0
-33 -4z"/>
<path d="M3447 2159 c-21 -12 -22 -42 -3 -58 20 -16 56 3 56 29 0 25 -30 41
-53 29z"/>
<path d="M2930 2080 c6 -11 17 -20 25 -20 11 0 10 5 -5 20 -11 11 -22 20 -25
20 -3 0 -1 -9 5 -20z"/>
<path d="M2739 1815 c-27 -15 -59 -69 -59 -100 0 -32 33 -86 61 -100 33 -18
269 -22 269 -5 0 6 -41 10 -104 10 -98 0 -106 2 -135 26 -26 21 -31 33 -31 69
0 36 5 48 31 69 29 24 37 26 135 26 63 0 104 4 104 10 0 16 -240 12 -271 -5z"/>
<path d="M3098 1715 c-50 -87 -62 -115 -50 -115 9 0 26 17 37 38 l20 37 77 3
77 3 26 -41 c18 -29 32 -40 49 -40 24 0 22 5 -42 115 -62 106 -69 115 -97 115
-28 -1 -35 -9 -97 -115z m125 30 l26 -45 -65 0 -64 0 31 50 c17 28 35 48 39
45 5 -3 20 -25 33 -50z"/>
<path d="M3400 1715 c0 -146 18 -154 22 -10 l3 105 115 -104 c102 -94 119
-105 153 -106 l37 0 0 115 c0 146 -18 154 -22 9 l-3 -106 -117 106 c-102 93
-120 106 -152 106 l-36 0 0 -115z"/>
</g>
</svg>
